<svg width="334" height="333" viewBox="0 0 334 333" fill="none" xmlns="http://www.w3.org/2000/svg">
<g clip-path="url(#clip0_187_2490)">
<rect x="42" y="41.9556" width="250" height="249.089" rx="124.544" fill="#F6F5F2"/>
<path d="M132.624 163.982C101.049 167.446 80.8381 171.517 60.9621 177.624C60.8614 177.655 60.8068 177.517 60.9026 177.474C70.0338 173.3 81.9378 169.933 86.8473 167.745C86.9234 167.711 86.9039 167.602 86.8217 167.588L66.053 164.043C65.9632 164.027 65.9607 163.9 66.0487 163.876C78.7015 160.491 86.1797 158.361 97.0912 156.456C97.1719 156.442 97.2254 156.539 97.1686 156.598L91.7882 162.189C91.7736 162.204 91.7537 162.213 91.7329 162.214C87.2852 162.54 84.3711 162.794 80.4039 163.581C80.3051 163.6 80.3168 163.743 80.4175 163.745L93.2857 164.102C93.3098 164.103 93.333 164.094 93.3496 164.076L123.784 131.999C123.812 131.969 123.858 131.964 123.892 131.987L129.093 135.437C129.129 135.46 129.177 135.454 129.205 135.421L143.909 118.006C143.936 117.974 143.983 117.967 144.018 117.989L151.006 122.308C151.052 122.336 151.113 122.314 151.131 122.263L154.725 111.666C154.729 111.652 154.738 111.64 154.749 111.63L169.215 98.8339C169.247 98.8049 169.297 98.8056 169.329 98.8356L184.444 113.015C184.456 113.026 184.464 113.041 184.468 113.057L184.96 115.085C184.971 115.134 185.023 115.162 185.07 115.145L191.025 113.053C191.06 113.04 191.099 113.052 191.121 113.081L208.561 135.793C208.589 135.829 208.639 135.837 208.676 135.812L214.653 131.736C214.687 131.712 214.733 131.717 214.762 131.747L246.104 164.202C246.12 164.22 246.144 164.229 246.169 164.228L258.279 163.645C258.383 163.64 258.389 163.49 258.286 163.477L247.459 162.09C247.439 162.087 247.421 162.078 247.408 162.063L242.295 156.492C242.238 156.43 242.296 156.332 242.378 156.352L273.646 164.006C273.735 164.028 273.731 164.157 273.64 164.172L252.933 167.707C252.848 167.722 252.837 167.84 252.918 167.87L280.145 177.975C245.105 168.647 214.865 162.595 170.752 162.464C170.721 162.464 170.691 162.446 170.676 162.418C167.168 155.836 170.068 153.004 178.75 148.593C185.257 144.499 187.574 142.076 185.111 137.118C182.386 132.327 174.081 129.679 166.942 125.142C166.938 125.139 166.934 125.136 166.93 125.133C165.112 123.499 165.194 122.303 167.89 119.867C167.965 119.798 167.876 119.67 167.787 119.718C165.348 121.033 163.897 121.922 164.724 124.619C164.727 124.628 164.732 124.638 164.737 124.645C167.205 127.915 171.61 129.806 176.017 133.455C176.021 133.459 176.025 133.463 176.029 133.467C181.084 139.641 176.538 142.037 162.262 146.701C146.306 152.489 138.136 156.526 132.683 163.947C132.669 163.966 132.647 163.979 132.624 163.982Z" fill="#2A221D" stroke="#2A221D" stroke-width="0.0848262" stroke-linejoin="round"/>
<path d="M282.903 189.322L280.186 196.459L266.144 191.413L266.099 191.398L266.082 191.442L264.83 194.727L264.207 194.503L264.162 194.488L264.145 194.531L261.517 201.436L261.499 201.482L261.545 201.498L262.167 201.722L260.763 205.412L260.745 205.458L260.792 205.475L275.376 210.714L272.658 217.853L248.42 209.145L259.208 180.807L282.903 189.322ZM66.085 184.05C69.3759 182.979 72.4738 182.625 75.3789 182.985H75.3799C78.2756 183.317 80.7915 184.32 82.9287 185.99C85.065 187.661 86.6417 189.969 87.6582 192.917C88.6841 195.893 88.8655 198.685 88.2051 201.295C87.5349 203.879 86.1525 206.164 84.0566 208.152C81.9515 210.111 79.2548 211.628 75.9639 212.698L61.4277 217.427L51.5508 188.779L66.085 184.05ZM226.473 174.731L235.815 190.185L235.03 194.767L235.021 194.815L235.07 194.823L239.027 195.463L239.131 195.48L239.076 195.39L235.917 190.165L238.237 176.635L248.254 178.256L243.143 208.059L234.684 206.689L225.341 191.236L226.127 186.655L226.136 186.606L226.087 186.598L222.13 185.957L222.026 185.941L222.081 186.031L225.239 191.254L222.919 204.785L212.902 203.163L218.014 173.362L226.473 174.731ZM130.092 202.143L119.439 203.666L116.633 198.826L119.688 198.39L119.757 198.38L119.724 198.319L115.975 191.414L115.958 191.385L115.925 191.39L112.596 191.865L108.488 184.784L109.736 179.386L109.752 179.318L109.682 179.327L105.625 179.907L105.554 179.917L105.59 179.98L108.385 184.8L106.553 192.73L101.726 193.42L101.692 193.425L101.686 193.458L100.143 201.119L100.129 201.187L100.197 201.177L104.752 200.526L103.499 205.946L93.0234 207.444L101.944 175.629L112.112 174.175L130.092 202.143ZM72.2051 191.232C70.9746 191.05 69.6517 191.189 68.2373 191.65L64.0527 193.011L64.0059 193.027L64.0225 193.073L68.7217 206.704L68.7373 206.749L68.7822 206.735L72.9668 205.373C74.2927 204.942 75.3803 204.333 76.2275 203.545L76.3936 203.385C77.2917 202.51 77.863 201.464 78.1074 200.249H78.1084C78.3434 199.007 78.203 197.643 77.6914 196.158C77.1891 194.702 76.4642 193.558 75.5156 192.731C74.5678 191.904 73.4639 191.405 72.2051 191.232ZM277.17 199.263L274.576 206.076L262.293 201.664L264.887 194.851L277.17 199.263ZM186.124 171.673C188.33 171.018 190.691 170.761 193.207 170.902C195.753 171.044 198.068 171.563 200.152 172.458C202.237 173.354 204.019 174.564 205.501 176.088H205.502C206.893 177.49 207.958 179.102 208.698 180.923L208.842 181.29C209.616 183.235 209.935 185.357 209.799 187.656C209.664 189.926 209.097 191.998 208.096 193.872L208.095 193.873C207.184 195.633 205.974 197.16 204.465 198.455L204.158 198.711C202.508 200.031 200.594 201.019 198.418 201.676C196.242 202.333 193.881 202.59 191.335 202.448C188.819 202.307 186.503 201.787 184.39 200.89H184.389C182.305 199.995 180.521 198.799 179.038 197.304H179.039C177.649 195.875 176.571 194.248 175.805 192.423L175.656 192.056C174.913 190.084 174.608 187.963 174.743 185.693C174.871 183.537 175.365 181.581 176.226 179.823L176.402 179.474C177.404 177.599 178.73 176.001 180.381 174.681C182.033 173.332 183.948 172.33 186.124 171.673ZM147.88 190.342L147.757 188.219L147.662 188.207L145.703 194.43L145.793 194.467L147.804 190.693L148.431 201.447L138.026 202.02L137.392 191.144L139.925 194.79L140.009 194.742L137.25 188.78L137.158 188.803L137.274 190.806L124.556 172.5L135.523 171.897L142.458 181.983L139.54 187.432L139.5 187.508L139.586 187.503L146.038 187.148L146.124 187.143L146.075 187.072L142.571 181.977L148.349 171.191L158.381 170.638L147.88 190.342ZM264.796 194.818L262.202 201.631L261.624 201.424L264.218 194.611L264.796 194.818ZM104.775 200.423L100.251 201.071L101.773 193.51L106.529 192.83L104.775 200.423ZM116.476 198.75L104.878 200.408L106.633 192.816L112.544 191.97L116.476 198.75ZM119.604 198.303L116.579 198.736L112.647 191.955L115.904 191.49L119.604 198.303ZM238.938 195.35L235.134 194.735L235.893 190.312L238.938 195.35ZM192.723 179.061C191.738 179.006 190.802 179.128 189.915 179.428H189.914C189.057 179.729 188.279 180.196 187.583 180.826C186.917 181.431 186.377 182.201 185.962 183.137C185.548 184.046 185.307 185.094 185.236 186.281C185.175 187.318 185.256 188.277 185.479 189.155L185.583 189.527C185.886 190.474 186.331 191.3 186.919 192.003L186.921 192.004C187.463 192.595 188.079 193.079 188.771 193.455L189.073 193.61C189.919 194.006 190.835 194.232 191.819 194.287C192.804 194.343 193.726 194.22 194.584 193.918L194.583 193.917C195.47 193.618 196.247 193.167 196.912 192.564C197.609 191.933 198.164 191.163 198.577 190.255L198.578 190.254C198.993 189.317 199.235 188.255 199.306 187.069C199.367 186.031 199.286 185.083 199.062 184.227L198.957 183.865C198.656 182.889 198.195 182.061 197.574 181.385C196.986 180.683 196.269 180.133 195.424 179.737H195.425C194.608 179.341 193.707 179.116 192.723 179.061ZM139.687 194.278L137.381 190.958L137.27 189.053L139.687 194.278ZM147.793 190.506L145.953 193.958L147.675 188.488L147.793 190.506ZM226.022 186.686L225.264 191.109L222.218 186.07L226.022 186.686ZM145.946 187.055L139.666 187.402L142.521 182.073L145.946 187.055ZM108.417 184.661L105.709 179.992L109.625 179.433L108.417 184.661Z" fill="#2A221D" stroke="#2A221D" stroke-width="0.0970168"/>
<path d="M125.13 140.144L119.028 146.323L124.221 134.344L133.309 140.144H125.13Z" fill="#F6F5F2" stroke="#2A221D" stroke-width="0.0848262"/>
<path d="M147.981 128.165L139.542 133.587L143.956 119.968L160.574 133.083L147.981 128.165Z" fill="#F6F5F2" stroke="#2A221D" stroke-width="0.0848262"/>
<path d="M166.157 110.133L169.013 102.945L183.684 115.429L179.789 122.365L190.695 115.807L198.744 133.209L201.73 129.931L207.572 138.758L214.063 134.47L226.787 157.421L218.348 149.855L216.79 156.034L207.312 142.036L198.484 150.737L200.432 139.64L195.758 136.74L190.175 117.32L176.673 126.021L176.154 119.086L170.182 115.933L173.038 110.763L166.157 110.133Z" fill="#F6F5F2" stroke="#2A221D" stroke-width="0.0848262"/>
<path d="M151.486 162.969H154.602C154.178 158.743 157.745 155.709 169.532 149.35C177.786 145.277 180.469 143.635 181.995 141.784C182.263 139.258 182.092 138.093 181.476 136.74C179.401 132.887 176.758 132.044 173.297 129.426C176.077 131.551 177.72 132.703 179.918 135.101C181.135 138.436 181.335 140.166 179.269 142.541C177.451 144.306 174.79 145.676 163.69 150.863C155.77 155.151 150.837 159.438 151.486 162.969Z" fill="#2A221D" stroke="#2A221D" stroke-width="0.0848262"/>
<path d="M159.667 209.627C206.461 209.921 233.019 213.536 265.346 227.155C238.602 219.589 216.271 214.166 159.667 213.536C126.285 215.671 107.618 218.142 74.5 227.029C100.775 215.991 119.416 212.178 159.667 209.627Z" fill="#2A221D" stroke="#2A221D" stroke-width="0.0848262"/>
<path d="M113.968 220.471V223.498C122.407 220.976 133.442 219.336 150.19 217.697C136.481 218.254 130.582 218.069 113.968 220.471Z" fill="#2A221D" stroke="#2A221D" stroke-width="0.0848262"/>
<path d="M225.62 220.471V223.75C214.398 220.192 205.118 219.357 189.009 217.697C203.284 218.393 212.118 218.328 225.62 220.471Z" fill="#2A221D" stroke="#2A221D" stroke-width="0.0848262"/>
<path d="M235.095 221.985C235.193 221.878 237.388 222.447 238.47 222.741L232.238 229.046L239.249 239.261L229.642 231.19C210.384 247.129 191.862 250.988 177.971 252.375L178.75 249.475C200.561 247.169 220.554 237.768 235.095 221.985Z" fill="#2A221D" stroke="#2A221D" stroke-width="0.0848262"/>
<path d="M104.489 222.11L101.373 222.488C103.407 224.898 104.691 226.282 107.734 228.92L100.724 238.882L110.071 231.316C126.429 244.178 142.268 250.609 161.872 252.248L161.223 249.726C128.377 245.187 115.394 232.198 104.489 222.11Z" fill="#2A221D" stroke="#2A221D" stroke-width="0.0848262"/>
<path d="M165.766 215.932L153.562 216.31L169.921 271.543L186.149 216.31L174.075 215.932L169.921 261.833L165.766 215.932Z" fill="#2A221D" stroke="#2A221D" stroke-width="0.0848262"/>
<rect x="0.0609" y="-0.000707296" width="4.52086" height="4.52418" transform="matrix(0.709855 -0.704347 0.726022 0.687671 146.569 227.166)" fill="#2A221D" stroke="#2A221D" stroke-width="0.0848262"/>
<rect x="0.0608433" y="-0.000706682" width="4.52083" height="4.52394" transform="matrix(0.709178 -0.705029 0.725362 0.688367 186.697 227.374)" fill="#2A221D" stroke="#2A221D" stroke-width="0.0848262"/>
<path d="M198.613 226.146L197.315 226.776C198.344 225.39 198.775 224.558 199.335 222.973C199.896 224.583 200.274 225.413 201.08 226.776L200.041 226.146C200.395 227.197 200.953 227.919 201.859 229.172L200.56 228.289C200.628 228.88 200.724 229.257 201.859 230.685H200.82C201.125 231.166 201.521 231.554 202.378 232.325L200.041 231.694H199.392H198.743L195.627 232.703C196.573 231.915 197.083 231.465 197.704 230.559L196.406 230.685C197.279 229.798 197.695 229.279 198.223 228.289L196.666 229.172C197.705 227.931 198.084 227.278 198.613 226.146Z" fill="#2A221D"/>
<path d="M199.392 222.867L199.335 222.973M199.335 222.973C198.775 224.558 198.344 225.39 197.315 226.776L198.613 226.146C198.084 227.278 197.705 227.931 196.666 229.172L198.223 228.289C197.695 229.279 197.279 229.798 196.406 230.685L197.704 230.559C197.083 231.465 196.573 231.915 195.627 232.703L198.743 231.694H199.392M199.335 222.973C199.896 224.583 200.274 225.413 201.08 226.776L200.041 226.146C200.395 227.197 200.953 227.919 201.859 229.172L200.56 228.289C200.628 228.88 200.724 229.257 201.859 230.685H200.82C201.125 231.166 201.521 231.554 202.378 232.325L200.041 231.694H199.392M199.392 231.694V233.838" stroke="#2A221D" stroke-width="0.0848262"/>
<path d="M139.931 226.65L138.633 227.281C139.663 225.895 140.093 225.063 140.654 223.478C141.214 225.088 141.593 225.918 142.398 227.281L141.359 226.65C141.714 227.702 142.272 228.423 143.177 229.677L141.879 228.794C141.947 229.385 142.042 229.762 143.177 231.19H142.138C142.443 231.671 142.84 232.059 143.696 232.829L141.359 232.199H140.71H140.061L136.945 233.208C137.892 232.42 138.402 231.97 139.023 231.064L137.724 231.19C138.597 230.303 139.013 229.784 139.542 228.794L137.984 229.677C139.024 228.435 139.402 227.783 139.931 226.65Z" fill="#2A221D"/>
<path d="M140.71 223.372L140.654 223.478M140.654 223.478C140.093 225.063 139.663 225.895 138.633 227.281L139.931 226.65C139.402 227.783 139.024 228.435 137.984 229.677L139.542 228.794C139.013 229.784 138.597 230.303 137.724 231.19L139.023 231.064C138.402 231.97 137.892 232.42 136.945 233.208L140.061 232.199H140.71M140.654 223.478C141.214 225.088 141.593 225.918 142.398 227.281L141.359 226.65C141.714 227.702 142.272 228.423 143.177 229.677L141.879 228.794C141.947 229.385 142.042 229.762 143.177 231.19H142.138C142.443 231.671 142.84 232.059 143.696 232.829L141.359 232.199H140.71M140.71 232.199V234.343" stroke="#2A221D" stroke-width="0.0848262"/>
<path d="M83.8464 156.916L80.8604 157.546C81.6392 127.408 93.3236 112.78 107.605 97.648L100.464 87.4337L110.201 95.5042C125.521 81.6331 145.774 74.4453 163.171 73.8147C163.275 73.8109 162.781 75.6642 162.522 76.5889C139.023 79.2372 125.131 85.7945 109.293 99.9178C91.0893 119.034 85.1383 131.371 83.8464 156.916Z" fill="#2A221D" stroke="#2A221D" stroke-width="0.0848262"/>
<path d="M176.672 73.9412L177.451 76.5893C196.795 78.6069 214.711 85.1344 231.978 101.557C246 116.564 254.66 131.396 255.996 156.79L258.723 157.799C258.723 138.127 251.712 115.681 231.978 98.1527L239.119 87.5602L229.771 95.6307C210.557 79.7419 193.16 75.0761 176.672 73.9412Z" fill="#2A221D" stroke="#2A221D" stroke-width="0.0848262"/>
<mask id="path-24-inside-1_187_2490" fill="white">
<path d="M254.185 156.207C253.082 136.414 244.733 117.67 230.661 103.394C216.589 89.1192 197.733 80.2655 177.536 78.4496L177.368 80.2314C197.128 82.008 215.575 90.6698 229.342 104.636C243.109 118.602 251.278 136.94 252.357 156.304L254.185 156.207Z"/>
</mask>
<path d="M254.185 156.207C253.082 136.414 244.733 117.67 230.661 103.394C216.589 89.1192 197.733 80.2655 177.536 78.4496L177.368 80.2314C197.128 82.008 215.575 90.6698 229.342 104.636C243.109 118.602 251.278 136.94 252.357 156.304L254.185 156.207Z" fill="#2A221D" stroke="#2A221D" stroke-width="0.169652" mask="url(#path-24-inside-1_187_2490)"/>
<mask id="path-25-inside-2_187_2490" fill="white">
<path d="M179.571 247.581C199.898 245.381 218.726 236.117 232.593 221.493L231.241 220.28C217.674 234.587 199.255 243.651 179.368 245.803L179.571 247.581Z"/>
</mask>
<path d="M179.571 247.581C199.898 245.381 218.726 236.117 232.593 221.493L231.241 220.28C217.674 234.587 199.255 243.651 179.368 245.803L179.571 247.581Z" fill="#2A221D" stroke="#2A221D" stroke-width="0.169652" mask="url(#path-25-inside-2_187_2490)"/>
<mask id="path-26-inside-3_187_2490" fill="white">
<path d="M106.774 221.789C120.864 236.627 140.055 245.928 160.718 247.933L160.901 246.152C140.686 244.191 121.91 235.092 108.125 220.575L106.774 221.789Z"/>
</mask>
<path d="M106.774 221.789C120.864 236.627 140.055 245.928 160.718 247.933L160.901 246.152C140.686 244.191 121.91 235.092 108.125 220.575L106.774 221.789Z" fill="#2A221D" stroke="#2A221D" stroke-width="0.169652" mask="url(#path-26-inside-3_187_2490)"/>
<mask id="path-27-inside-4_187_2490" fill="white">
<path d="M161.74 78.4781C141.55 80.3667 122.728 89.2882 108.71 103.614C94.6915 117.94 86.4126 136.714 85.3841 156.511L87.2127 156.601C88.2189 137.234 96.3185 118.866 110.033 104.851C123.747 90.8352 142.162 82.107 161.915 80.2593L161.74 78.4781Z"/>
</mask>
<path d="M161.74 78.4781C141.55 80.3667 122.728 89.2882 108.71 103.614C94.6915 117.94 86.4126 136.714 85.3841 156.511L87.2127 156.601C88.2189 137.234 96.3185 118.866 110.033 104.851C123.747 90.8352 142.162 82.107 161.915 80.2593L161.74 78.4781Z" fill="#2A221D" stroke="#2A221D" stroke-width="0.169652" mask="url(#path-27-inside-4_187_2490)"/>
<path d="M168.234 96.1354L156.42 106.854L169.922 58.1787L183.164 108.115L172.908 98.5313L169.922 67.6364L168.234 96.1354Z" fill="#2A221D" stroke="#2A221D" stroke-width="0.0848262"/>
<path d="M158.626 89.5776V90.7126L154.342 91.217L155.9 98.4048L155.64 101.431L153.173 91.4692L149.798 92.0997L153.952 106.475L153.563 108.997L148.759 92.6041L145.384 93.6129L151.875 111.393C151.832 112.024 151.719 113.36 151.615 113.663C151.511 113.966 146.639 100.591 144.215 93.8651L140.84 95.2522C143.869 102.104 149.928 115.857 149.928 116.059V117.951L139.671 95.5044L136.425 97.1438L146.812 116.69L144.994 115.176L135.647 97.5221L132.531 99.4136L142.398 115.555L141.878 116.311L131.492 99.918L128.506 101.936L140.061 118.455L139.671 119.212L127.338 102.566L124.741 104.836L132.141 113.915L123.702 105.593L122.664 106.349L122.015 105.593C130.583 97.1438 143.047 91.217 158.626 89.5776Z" fill="#2A221D" stroke="#2A221D" stroke-width="0.0848262"/>
<path d="M181.086 89.7036V90.8385L185.37 91.3429L183.293 99.1613L183.812 101.936L186.539 91.5951L189.914 92.2257L185.24 107.106L185.76 109.249L190.953 92.7301L194.328 93.7389C194.334 93.8195 187.101 112.04 187.577 111.898C189.265 111.393 192.381 100.801 195.497 93.9911L198.872 95.3782C195.843 102.23 191.665 110.699 191.862 110.763C192.251 110.889 192.251 110.889 192.641 111.141L200.041 95.6304L203.286 97.2697L194.328 112.906L195.107 113.789L204.065 97.648L207.181 99.5396L196.795 115.933L197.055 116.816L208.22 100.044L211.206 102.062L198.742 118.833L199.521 119.464L212.374 102.692L214.971 104.962L207.571 114.041L216.01 105.719L217.048 106.475L217.697 105.719C209.129 97.2697 196.665 91.3429 181.086 89.7036Z" fill="#2A221D" stroke="#2A221D" stroke-width="0.0848262"/>
<path d="M138.113 121.356L131.751 128.922L114.614 103.071L138.113 121.356Z" fill="#2A221D" stroke="#2A221D" stroke-width="0.0848262"/>
<path d="M200.818 121.86L207.439 130.309L225.485 102.945L200.818 121.86Z" fill="#2A221D" stroke="#2A221D" stroke-width="0.0848262"/>
<path d="M116.693 110.259L118.121 112.15C117.861 111.982 117.316 111.62 117.212 111.52C117.108 111.419 115.654 112.907 115.005 113.789C119.435 116.848 121.213 118.479 124.093 121.356L114.486 114.42L111.889 117.32C118.22 120.76 128.504 127.982 127.988 128.165C127.85 128.214 116.952 121.398 111.37 117.951L109.422 120.599L123.444 129.048L122.665 129.552L108.903 121.608L106.956 124.508C111.5 126.82 120.613 131.469 120.717 131.57C120.821 131.671 120.501 132.032 120.328 132.2L106.566 125.265L104.878 128.543C109.206 130.477 117.913 134.344 118.121 134.344C118.328 134.344 117.861 134.68 117.601 134.848L104.489 129.174L102.801 132.452L115.524 136.992L114.875 137.749L102.541 133.335L101.113 136.614L112.928 139.892L112.019 140.775C106.388 139.122 104.513 138.621 100.854 137.623L99.8151 140.775L109.682 143.045L109.292 143.676C106.133 142.961 99.7631 141.91 99.5554 141.91C99.3477 141.91 99.0361 143.844 98.9063 144.937L106.696 146.324L106.177 147.08L98.6466 145.945L98.1273 149.224C99.9016 149.392 103.476 149.728 103.58 149.728C103.684 149.728 103.191 150.233 102.931 150.485L97.9975 150.233L98.1273 153.133H100.334L99.8151 153.764H96.6992C97.2185 139.64 102.541 124.508 116.693 110.259Z" fill="#2A221D" stroke="#2A221D" stroke-width="0.0848262"/>
<path d="M222.764 110.132L221.336 112.024C221.596 111.855 222.141 111.494 222.245 111.393C222.349 111.292 223.803 112.78 224.452 113.663C220.022 116.721 218.244 118.353 215.364 121.229L224.971 114.293L227.568 117.194C221.238 120.633 210.953 127.856 211.469 128.039C211.607 128.087 222.505 121.271 228.087 117.824L230.035 120.472L216.013 128.921L216.792 129.426L230.554 121.481L232.501 124.382C227.958 126.693 218.844 131.342 218.74 131.443C218.636 131.544 218.956 131.906 219.129 132.074L232.891 125.138L234.579 128.417C230.251 130.35 221.544 134.218 221.336 134.218C221.129 134.218 221.596 134.554 221.856 134.722L234.968 129.047L236.656 132.326L223.933 136.866L224.582 137.622L236.916 133.209L238.344 136.487L226.529 139.766L227.438 140.649C233.069 138.995 234.944 138.494 238.603 137.496L239.642 140.649L229.775 142.919L230.165 143.549C233.324 142.835 239.694 141.784 239.902 141.784C240.109 141.784 240.421 143.717 240.551 144.81L232.761 146.197L233.28 146.954L240.81 145.819L241.33 149.098C239.555 149.266 235.981 149.602 235.877 149.602C235.773 149.602 236.266 150.106 236.526 150.359L241.46 150.106L241.33 153.007H239.123L239.642 153.637H242.758C242.239 139.514 236.916 124.382 222.764 110.132Z" fill="#2A221D" stroke="#2A221D" stroke-width="0.0848262"/>
<path d="M168.884 57.1696H164.21C165.126 56.6622 165.582 56.3651 166.157 55.7825V48.7207C166.157 47.7119 164.859 47.5858 163.95 46.9553H167.715C169.922 49.6035 171.221 50.7384 173.947 53.8909V48.973C173.947 47.838 172.978 47.6753 172.129 46.9553H176.933C175.959 47.5132 174.986 48.3424 174.986 48.973L174.856 57.674C171.87 54.8997 167.17 49.4774 167.066 49.4774C166.962 49.4774 167.023 53.6808 167.066 55.7825C167.597 56.392 168.091 56.7053 168.884 57.1696Z" fill="#2A221D" stroke="#2A221D" stroke-width="0.0848262"/>
<path d="M283 157.925V162.339C282.091 160.7 281.962 159.312 280.533 158.934H277.158C277.158 160.321 277.158 162.339 277.158 162.717H278.716C279.688 162.13 279.969 161.632 280.403 160.7V165.744C279.814 164.643 279.703 164.021 278.975 163.348L277.288 163.348V167.131C279.894 168.464 281.961 167.383 283 164.356V168.392H272.744L274.951 167.257V159.817C274.951 158.808 272.387 157.925 272.614 157.925H283Z" fill="#2A221D" stroke="#2A221D" stroke-width="0.0848262"/>
<path d="M173.558 273.56V278.604L172.779 276.208C172.045 275.221 171.429 274.802 169.923 274.317C168.4 274.583 167.745 274.87 167.586 276.082C167.621 276.953 168.351 277.488 172.13 278.604C173.467 279.712 174.162 280.357 174.207 282.009C174.089 283.481 173.589 284.155 172.13 285.162C170.207 285.535 169.123 285.659 167.066 284.279C166.552 284.738 166.547 285.54 166.158 286.044V280.118L166.677 282.135L168.235 283.901C170.005 284.705 170.832 284.689 172.13 284.153C172.649 283.775 172.779 282.892 172.519 282.135C171.39 280.498 168.105 280.118 166.937 279.109C165.887 277.592 165.77 276.71 166.547 275.074C168.235 272.93 171.221 273.56 172.26 274.569L173.558 273.56Z" fill="#2A221D" stroke="#2A221D" stroke-width="0.0848262"/>
<path d="M56.1931 158.177C54.765 158.135 51.6491 158.051 51 158.051L52.8176 159.438L56.1931 169.022C57.1452 166.584 59.2051 161.683 59.3089 161.582C59.4128 161.481 60.9967 166.836 61.9055 169.526C64.3722 163.725 65.0213 159.186 66.8389 158.051L62.8143 158.177C63.5635 158.628 63.977 158.77 64.502 159.69L62.6845 165.112L60.9967 160.699C60.7049 159.187 60.968 158.688 61.9055 158.177L56.8422 158.177C58.0062 158.8 58.5745 159.15 58.7544 160.39C58.7837 160.592 58.7521 160.798 58.6797 160.989L56.9721 165.491L54.765 159.69C54.9465 158.771 55.3916 158.636 56.1931 158.177Z" fill="#2A221D" stroke="#2A221D" stroke-width="0.0848262"/>
</g>
<rect x="21" y="21" width="292" height="291" rx="145.5" stroke="#2A221D" stroke-width="42"/>
<defs>
<clipPath id="clip0_187_2490">
<rect x="42" y="42" width="250" height="249" rx="124.5" fill="white"/>
</clipPath>
</defs>
</svg>
